<?xml version="1.0" encoding="UTF-8" standalone="no" ?>
<!DOCTYPE svg PUBLIC "-//W3C//DTD SVG 1.1//EN" "http://www.w3.org/Graphics/SVG/1.1/DTD/svg11.dtd">
<svg xmlns="http://www.w3.org/2000/svg" xmlns:xlink="http://www.w3.org/1999/xlink" version="1.1" width="1280" height="1024" viewBox="0 0 1280 1024" xml:space="preserve">
<desc>Created with Fabric.js 3.1.0</desc>
<defs>
</defs>
<g transform="matrix(1.9692780337941629 0 0 1.9692780337941629 640.0153846153846 512.012312418764)" id="background-logo"  >
<rect style="stroke: none; stroke-width: 1; stroke-dasharray: none; stroke-linecap: butt; stroke-dashoffset: 0; stroke-linejoin: miter; stroke-miterlimit: 4; fill: rgb(255,255,255); fill-rule: nonzero; opacity: 1;"  paint-order="stroke"  x="-325" y="-260" rx="0" ry="0" width="650" height="520" />
</g>
<g transform="matrix(1.9692780337941624 0 0 1.9692780337941629 650.232031520173 683.2587167683978)" id="text-logo-path"  >
<path style="stroke: rgb(255,255,255); stroke-width: 0; stroke-dasharray: none; stroke-linecap: butt; stroke-dashoffset: 0; stroke-linejoin: miter; stroke-miterlimit: 4; fill: rgb(0,0,0); fill-rule: nonzero; opacity: 1;"  paint-order="stroke"  transform=" translate(-157.52, 18.564999999999998)" d="M 22.45 -7.65 L 22.45 -7.65 Q 24.39 -7.65 26.21 -8.23 Q 28.04 -8.82 28.89 -9.36 L 28.89 -9.36 L 29.74 -9.95 L 33.34 -2.75 Q 33.16 -2.61 32.85 -2.38 Q 32.53 -2.16 31.39 -1.55 Q 30.24 -0.94 28.93 -0.49 Q 27.63 -0.04 25.52 0.32 Q 23.4 0.67 21.15 0.67 L 21.15 0.67 Q 15.97 0.67 11.34 -1.87 Q 6.71 -4.41 3.87 -8.87 Q 1.03 -13.32 1.03 -18.5 L 1.03 -18.5 Q 1.03 -22.41 2.7 -26.01 Q 4.37 -29.61 7.13 -32.17 Q 9.9 -34.74 13.59 -36.27 Q 17.28 -37.8 21.15 -37.8 L 21.15 -37.8 Q 24.75 -37.8 27.79 -36.95 Q 30.82 -36.09 32.09 -35.23 L 32.09 -35.23 L 33.34 -34.38 L 29.74 -27.18 Q 29.43 -27.45 28.8 -27.83 Q 28.17 -28.21 26.28 -28.84 Q 24.39 -29.47 22.45 -29.47 L 22.45 -29.47 Q 19.39 -29.47 16.96 -28.48 Q 14.54 -27.49 13.12 -25.88 Q 11.7 -24.25 10.96 -22.39 Q 10.21 -20.52 10.21 -18.59 L 10.21 -18.59 Q 10.21 -14.35 13.39 -11 Q 16.56 -7.65 22.45 -7.65 Z M 34.92 -18.59 L 34.92 -18.59 Q 34.92 -26.64 40.41 -32.22 Q 45.9 -37.8 53.64 -37.8 L 53.64 -37.8 Q 61.42 -37.8 66.87 -32.24 Q 72.31 -26.68 72.31 -18.59 L 72.31 -18.59 Q 72.31 -10.44 66.96 -4.88 Q 61.6 0.67 53.64 0.67 L 53.64 0.67 Q 45.49 0.67 40.21 -4.84 Q 34.92 -10.35 34.92 -18.59 Z M 44.05 -18.59 L 44.05 -18.59 Q 44.05 -15.66 44.95 -13.25 Q 45.85 -10.84 48.1 -9.18 Q 50.35 -7.51 53.64 -7.51 L 53.64 -7.51 Q 58.36 -7.51 60.77 -10.75 Q 63.18 -13.99 63.18 -18.59 L 63.18 -18.59 Q 63.18 -23.13 60.73 -26.39 Q 58.27 -29.65 53.64 -29.65 L 53.64 -29.65 Q 49.05 -29.65 46.55 -26.39 Q 44.05 -23.13 44.05 -18.59 Z M 84.6 -23.04 L 84.51 -23.04 L 84.51 0 L 76.05 0 L 76.05 -37.13 L 84.51 -37.13 L 99.27 -14.08 L 99.36 -14.08 L 99.36 -37.13 L 107.82 -37.13 L 107.82 0 L 99.36 0 L 84.6 -23.04 Z M 113.22 -37.13 L 134.69 -37.13 L 134.69 -29.7 L 121.68 -29.7 L 121.68 -22.32 L 133.69 -22.32 L 133.69 -14.89 L 121.68 -14.89 L 121.68 0 L 113.22 0 L 113.22 -37.13 Z M 138.73 -37.13 L 159.97 -37.13 L 159.97 -29.7 L 147.19 -29.7 L 147.19 -22.32 L 159.44 -22.32 L 159.44 -14.89 L 147.19 -14.89 L 147.19 -7.42 L 159.97 -7.42 L 159.97 0 L 138.73 0 L 138.73 -37.13 Z M 164.83 0 L 164.83 -37.13 L 178.11 -37.13 Q 183.46 -37.13 186.84 -34.27 Q 190.21 -31.41 190.21 -26.1 L 190.21 -26.1 Q 190.21 -22 188.17 -19.24 Q 186.12 -16.47 182.61 -15.34 L 182.61 -15.34 L 195.39 0 L 184.63 0 L 173.29 -14.67 L 173.29 0 L 164.83 0 Z M 173.29 -30.38 L 173.29 -20.65 L 174.28 -20.65 Q 175.45 -20.65 176.26 -20.7 Q 177.07 -20.75 178.11 -21.02 Q 179.14 -21.29 179.77 -21.78 Q 180.41 -22.27 180.85 -23.22 Q 181.3 -24.16 181.3 -25.52 Q 181.3 -26.86 180.85 -27.81 Q 180.41 -28.75 179.77 -29.25 Q 179.14 -29.74 178.11 -30.02 Q 177.07 -30.29 176.26 -30.33 Q 175.45 -30.38 174.28 -30.38 L 174.28 -30.38 L 173.29 -30.38 Z M 197.05 -37.13 L 218.29 -37.13 L 218.29 -29.7 L 205.51 -29.7 L 205.51 -22.32 L 217.75 -22.32 L 217.75 -14.89 L 205.51 -14.89 L 205.51 -7.42 L 218.29 -7.42 L 218.29 0 L 197.05 0 L 197.05 -37.13 Z M 231.7 -23.04 L 231.61 -23.04 L 231.61 0 L 223.15 0 L 223.15 -37.13 L 231.61 -37.13 L 246.37 -14.08 L 246.46 -14.08 L 246.46 -37.13 L 254.92 -37.13 L 254.92 0 L 246.46 0 L 231.7 -23.04 Z M 278.64 -7.65 L 278.64 -7.65 Q 280.57 -7.65 282.4 -8.23 Q 284.22 -8.82 285.07 -9.36 L 285.07 -9.36 L 285.93 -9.95 L 289.53 -2.75 Q 289.35 -2.61 289.04 -2.38 Q 288.72 -2.16 287.57 -1.55 Q 286.43 -0.94 285.12 -0.49 Q 283.81 -0.04 281.7 0.32 Q 279.58 0.67 277.33 0.67 L 277.33 0.67 Q 272.16 0.67 267.52 -1.87 Q 262.89 -4.41 260.06 -8.87 Q 257.22 -13.32 257.22 -18.5 L 257.22 -18.5 Q 257.22 -22.41 258.88 -26.01 Q 260.55 -29.61 263.32 -32.17 Q 266.08 -34.74 269.77 -36.27 Q 273.47 -37.8 277.33 -37.8 L 277.33 -37.8 Q 280.94 -37.8 283.97 -36.95 Q 287.01 -36.09 288.27 -35.23 L 288.27 -35.23 L 289.53 -34.38 L 285.93 -27.18 Q 285.62 -27.45 284.99 -27.83 Q 284.36 -28.21 282.46 -28.84 Q 280.57 -29.47 278.64 -29.47 L 278.64 -29.47 Q 275.58 -29.47 273.15 -28.48 Q 270.72 -27.49 269.3 -25.88 Q 267.88 -24.25 267.14 -22.39 Q 266.4 -20.52 266.4 -18.59 L 266.4 -18.59 Q 266.4 -14.35 269.57 -11 Q 272.75 -7.65 278.64 -7.65 Z M 292.77 -37.13 L 314.01 -37.13 L 314.01 -29.7 L 301.23 -29.7 L 301.23 -22.32 L 313.47 -22.32 L 313.47 -14.89 L 301.23 -14.89 L 301.23 -7.42 L 314.01 -7.42 L 314.01 0 L 292.77 0 L 292.77 -37.13 Z" stroke-linecap="round" />
</g>
<g transform="matrix(1.6080198530082637 0 0 1.6080198530082637 651.3397504141823 416.7465030600561)" style="" id="logo-logo"  >
	<g transform="matrix(0.06983879403724289 0 0 -0.06983879403724289 -92.38415352834565 89.38248216062496)"  >
<path style="stroke: none; stroke-width: 1; stroke-dasharray: none; stroke-linecap: butt; stroke-dashoffset: 0; stroke-linejoin: miter; stroke-miterlimit: 4; fill: rgb(35,31,32); fill-rule: nonzero; opacity: 1;"  paint-order="stroke"  transform=" translate(-2886.615, -1700.98)" d="M 3399.29 2256.61 V 1145.35 H 2373.94 v 1111.26 h 1025.35" stroke-linecap="round" />
</g>
	<g transform="matrix(0.06983879403724289 0 0 -0.06983879403724289 -92.61043122102626 -26.963710795868934)"  >
<path style="stroke: none; stroke-width: 1; stroke-dasharray: none; stroke-linecap: butt; stroke-dashoffset: 0; stroke-linejoin: miter; stroke-miterlimit: 4; fill: rgb(35,31,32); fill-rule: nonzero; opacity: 1;"  paint-order="stroke"  transform=" translate(-2883.375, -3366.9049999999997)" d="M 3392.81 2485.43 H 2373.94 v 1762.95 z" stroke-linecap="round" />
</g>
	<g transform="matrix(0.06983879403724289 0 0 -0.06983879403724289 92.61043122102637 -26.49229893611752)"  >
<path style="stroke: none; stroke-width: 1; stroke-dasharray: none; stroke-linecap: butt; stroke-dashoffset: 0; stroke-linejoin: miter; stroke-miterlimit: 4; fill: rgb(35,31,32); fill-rule: nonzero; opacity: 1;"  paint-order="stroke"  transform=" translate(-5535.495000000001, -3360.1549999999997)" d="M 6044.93 4241.63 V 2478.68 H 5026.06 Z" stroke-linecap="round" />
</g>
	<g transform="matrix(0.06983879403724289 0 0 -0.06983879403724289 92.38415352834556 89.38248216062496)"  >
<path style="stroke: none; stroke-width: 1; stroke-dasharray: none; stroke-linecap: butt; stroke-dashoffset: 0; stroke-linejoin: miter; stroke-miterlimit: 4; fill: rgb(35,31,32); fill-rule: nonzero; opacity: 1;"  paint-order="stroke"  transform=" translate(-5532.255, -1700.98)" d="M 6044.93 2256.61 V 1145.35 H 5019.58 v 1111.26 h 1025.35" stroke-linecap="round" />
</g>
	<g transform="matrix(0.06983879403724289 0 0 -0.06983879403724289 5.684342e-14 -46.55907962683855)"  >
<linearGradient id="SVGID_283" gradientUnits="userSpaceOnUse" gradientTransform="matrix(1 0 0 1 2373.9400000000005 2478.6799999999994)"  x1="0" y1="0" x2="0" y2="2338">
<stop offset="0%" style="stop-color:rgb(245,81,95);stop-opacity: 1"/>
<stop offset="100%" style="stop-color:rgb(159,4,27);stop-opacity: 1"/>
</linearGradient>
<path style="stroke: none; stroke-width: 1; stroke-dasharray: none; stroke-linecap: butt; stroke-dashoffset: 0; stroke-linejoin: miter; stroke-miterlimit: 4; fill: url(#SVGID_283); fill-rule: nonzero; opacity: 1;"  paint-order="stroke"  transform=" translate(-4209.435, -3647.4849999999997)" d="M 6044.93 4816.29 L 4727.78 2478.68 H 3691.09 L 2373.94 4816.29 h 1025.35 l 810.55 -1322.8 l 809.74 1322.8 h 1025.35" stroke-linecap="round" />
</g>
	<g transform="matrix(0.06983879403724289 0 0 -0.06983879403724289 5.684342e-14 89.38248216062496)"  >
<linearGradient id="SVGID_284" gradientUnits="userSpaceOnUse" gradientTransform="matrix(1 0 0 1 3696.7700000000004 1145.35)"  x1="0" y1="0" x2="0" y2="2338">
<stop offset="0%" style="stop-color:rgb(245,81,95);stop-opacity: 1"/>
<stop offset="100%" style="stop-color:rgb(159,4,27);stop-opacity: 1"/>
</linearGradient>
<path style="stroke: none; stroke-width: 1; stroke-dasharray: none; stroke-linecap: butt; stroke-dashoffset: 0; stroke-linejoin: miter; stroke-miterlimit: 4; fill: url(#SVGID_284); fill-rule: nonzero; opacity: 1;"  paint-order="stroke"  transform=" translate(-4209.435, -1700.98)" d="M 4722.1 2256.61 V 1145.35 H 3696.77 V 2256.61 H 4722.1" stroke-linecap="round" />
</g>
</g>
</svg>